<svg width="197" height="79" viewBox="0 0 197 79" fill="none" xmlns="http://www.w3.org/2000/svg">
<rect y="0.5" width="184.346" height="34.5" rx="8" fill="white" fill-opacity="0.05"/>
<path d="M18.0057 15.1847C17.946 14.6809 17.7041 14.2898 17.2798 14.0114C16.8556 13.733 16.3352 13.5938 15.7188 13.5938C15.268 13.5938 14.8736 13.6667 14.5355 13.8125C14.2008 13.9583 13.9389 14.1589 13.75 14.4141C13.5644 14.6693 13.4716 14.9593 13.4716 15.2841C13.4716 15.5559 13.5362 15.7895 13.6655 15.9851C13.7981 16.1773 13.9671 16.3381 14.1726 16.4673C14.3781 16.5933 14.5935 16.6977 14.8189 16.7805C15.0443 16.8601 15.2514 16.9247 15.4403 16.9744L16.4744 17.2528C16.7396 17.3224 17.0346 17.4186 17.3594 17.5412C17.6875 17.6638 18.0007 17.8312 18.299 18.0433C18.6006 18.2521 18.8492 18.5206 19.0447 18.8487C19.2403 19.1768 19.3381 19.5795 19.3381 20.0568C19.3381 20.607 19.1939 21.1042 18.9055 21.5483C18.6205 21.9924 18.2029 22.3454 17.6527 22.6072C17.1058 22.8691 16.4413 23 15.6591 23C14.9299 23 14.2985 22.8823 13.7649 22.647C13.2346 22.4117 12.817 22.0836 12.5121 21.6626C12.2105 21.2417 12.0398 20.7528 12 20.196H13.2727C13.3059 20.5805 13.4351 20.8987 13.6605 21.1506C13.8892 21.3991 14.1776 21.5848 14.5256 21.7074C14.8769 21.8267 15.2547 21.8864 15.6591 21.8864C16.1297 21.8864 16.5523 21.8101 16.9268 21.6577C17.3014 21.5019 17.598 21.2865 17.8168 21.0114C18.0355 20.733 18.1449 20.4081 18.1449 20.0369C18.1449 19.6989 18.0504 19.4238 17.8615 19.2116C17.6726 18.9995 17.424 18.8272 17.1158 18.6946C16.8075 18.562 16.4744 18.446 16.1165 18.3466L14.8636 17.9886C14.0682 17.7599 13.4384 17.4335 12.9744 17.0092C12.5104 16.585 12.2784 16.0298 12.2784 15.3438C12.2784 14.7737 12.4325 14.2765 12.7408 13.8523C13.0523 13.4247 13.4699 13.0933 13.9936 12.858C14.5206 12.6193 15.1089 12.5 15.7585 12.5C16.4148 12.5 16.9981 12.6177 17.5085 12.853C18.0189 13.085 18.4233 13.4032 18.7216 13.8075C19.0232 14.2119 19.1823 14.6709 19.1989 15.1847H18.0057Z" fill="white" fill-opacity="0.8"/>
<path d="M24.4078 22.9801C23.6721 22.9801 23.0373 22.8177 22.5037 22.4929C21.9734 22.1648 21.5641 21.7074 21.2757 21.1207C20.9907 20.5308 20.8482 19.8447 20.8482 19.0625C20.8482 18.2803 20.9907 17.5909 21.2757 16.9943C21.5641 16.3944 21.9651 15.9271 22.4789 15.5923C22.9959 15.2543 23.5991 15.0852 24.2885 15.0852C24.6863 15.0852 25.079 15.1515 25.4668 15.2841C25.8546 15.4167 26.2076 15.6321 26.5257 15.9304C26.8439 16.2254 27.0975 16.6165 27.2864 17.1037C27.4753 17.5909 27.5698 18.1908 27.5698 18.9034V19.4006H21.6834V18.3864H26.3766C26.3766 17.9555 26.2904 17.571 26.1181 17.233C25.949 16.8949 25.7071 16.6281 25.3922 16.4325C25.0807 16.237 24.7128 16.1392 24.2885 16.1392C23.8212 16.1392 23.4168 16.2552 23.0755 16.4872C22.7374 16.7159 22.4772 17.0142 22.2949 17.3821C22.1126 17.75 22.0215 18.1444 22.0215 18.5653V19.2415C22.0215 19.8182 22.1209 20.3071 22.3198 20.7081C22.522 21.1058 22.802 21.4091 23.16 21.6179C23.5179 21.8234 23.9339 21.9261 24.4078 21.9261C24.7161 21.9261 24.9945 21.883 25.2431 21.7969C25.495 21.7074 25.7121 21.5748 25.8944 21.3991C26.0766 21.2202 26.2175 20.9981 26.3169 20.733L27.4505 21.0511C27.3311 21.4356 27.1306 21.7737 26.8489 22.0653C26.5672 22.3537 26.2192 22.5791 25.8049 22.7415C25.3906 22.9006 24.9249 22.9801 24.4078 22.9801Z" fill="white" fill-opacity="0.8"/>
<path d="M31.6017 23C31.1178 23 30.6787 22.9089 30.2843 22.7266C29.8899 22.541 29.5766 22.2741 29.3446 21.9261C29.1126 21.5748 28.9966 21.1506 28.9966 20.6534C28.9966 20.2159 29.0828 19.8613 29.2551 19.5895C29.4275 19.3144 29.6578 19.099 29.9462 18.9432C30.2346 18.7874 30.5527 18.6714 30.9007 18.5952C31.2521 18.5156 31.6051 18.4527 31.9597 18.4063C32.4237 18.3466 32.7999 18.3018 33.0882 18.272C33.3799 18.2389 33.592 18.1842 33.7246 18.108C33.8605 18.0317 33.9284 17.8991 33.9284 17.7102V17.6705C33.9284 17.1799 33.7942 16.7988 33.5257 16.527C33.2606 16.2552 32.8579 16.1193 32.3176 16.1193C31.7575 16.1193 31.3184 16.242 31.0002 16.4872C30.682 16.7325 30.4583 16.9943 30.329 17.2727L29.2154 16.875C29.4142 16.411 29.6794 16.0497 30.0108 15.7912C30.3456 15.5294 30.7102 15.3471 31.1046 15.2443C31.5023 15.1383 31.8934 15.0852 32.2779 15.0852C32.5231 15.0852 32.8049 15.1151 33.123 15.1747C33.4445 15.2311 33.7544 15.3487 34.0527 15.5277C34.3543 15.7067 34.6046 15.9768 34.8034 16.3381C35.0023 16.6993 35.1017 17.1832 35.1017 17.7898V22.821H33.9284V21.7869H33.8688C33.7892 21.9527 33.6567 22.13 33.4711 22.3189C33.2855 22.5078 33.0385 22.6686 32.7303 22.8011C32.4221 22.9337 32.0459 23 31.6017 23ZM31.7807 21.946C32.2447 21.946 32.6358 21.8549 32.954 21.6726C33.2755 21.4903 33.5175 21.255 33.6799 20.9666C33.8456 20.6783 33.9284 20.375 33.9284 20.0568V18.983C33.8787 19.0426 33.7694 19.0973 33.6003 19.147C33.4346 19.1934 33.2424 19.2348 33.0236 19.2713C32.8082 19.3045 32.5977 19.3343 32.3922 19.3608C32.19 19.384 32.026 19.4039 31.9 19.4205C31.5951 19.4602 31.3101 19.5249 31.0449 19.6143C30.7831 19.7005 30.571 19.8314 30.4086 20.0071C30.2495 20.1795 30.1699 20.4148 30.1699 20.7131C30.1699 21.1207 30.3207 21.429 30.6223 21.6378C30.9273 21.8433 31.3134 21.946 31.7807 21.946Z" fill="white" fill-opacity="0.8"/>
<path d="M37.2433 22.821V15.1847H38.3768V16.3381H38.4563C38.5955 15.9602 38.8474 15.6536 39.212 15.4183C39.5766 15.183 39.9876 15.0653 40.445 15.0653C40.5311 15.0653 40.6388 15.067 40.7681 15.0703C40.8974 15.0736 40.9951 15.0786 41.0614 15.0852V16.2784C41.0217 16.2685 40.9305 16.2536 40.788 16.2337C40.6488 16.2105 40.5013 16.1989 40.3455 16.1989C39.9743 16.1989 39.6429 16.2768 39.3512 16.4325C39.0629 16.585 38.8342 16.7971 38.6651 17.0689C38.4994 17.3374 38.4165 17.6439 38.4165 17.9886V22.821H37.2433Z" fill="white" fill-opacity="0.8"/>
<path d="M45.3221 22.9801C44.6062 22.9801 43.9897 22.8111 43.4727 22.473C42.9556 22.1349 42.5579 21.6693 42.2795 21.076C42.0011 20.4827 41.8619 19.8049 41.8619 19.0426C41.8619 18.267 42.0044 17.5826 42.2894 16.9893C42.5778 16.3928 42.9788 15.9271 43.4925 15.5923C44.0096 15.2543 44.6128 15.0852 45.3022 15.0852C45.8391 15.0852 46.323 15.1847 46.7539 15.3835C47.1848 15.5824 47.5378 15.8608 47.8129 16.2188C48.0879 16.5767 48.2586 16.9943 48.3249 17.4716H47.1516C47.0621 17.1236 46.8633 16.8153 46.555 16.5469C46.2501 16.2751 45.8391 16.1392 45.3221 16.1392C44.8647 16.1392 44.4637 16.2585 44.119 16.4972C43.7776 16.7325 43.5108 17.0656 43.3185 17.4964C43.1296 17.924 43.0352 18.4261 43.0352 19.0028C43.0352 19.5928 43.128 20.1065 43.3136 20.544C43.5025 20.9815 43.7676 21.3213 44.109 21.5632C44.4537 21.8052 44.8581 21.9261 45.3221 21.9261C45.627 21.9261 45.9038 21.8731 46.1523 21.767C46.4009 21.661 46.6114 21.5085 46.7837 21.3097C46.9561 21.1108 47.0787 20.8722 47.1516 20.5938H48.3249C48.2586 21.0445 48.0946 21.4505 47.8327 21.8118C47.5742 22.1697 47.2312 22.4548 46.8036 22.6669C46.3794 22.8757 45.8855 22.9801 45.3221 22.9801Z" fill="white" fill-opacity="0.8"/>
<path d="M51.2134 18.2273V22.821H50.0401V12.6392H51.2134V16.3778H51.3129C51.4918 15.9834 51.7603 15.6702 52.1183 15.4382C52.4795 15.2029 52.9601 15.0852 53.56 15.0852C54.0804 15.0852 54.5361 15.1896 54.9272 15.3984C55.3183 15.6039 55.6216 15.9205 55.837 16.348C56.0558 16.7723 56.1651 17.3125 56.1651 17.9688V22.821H54.9918V18.0483C54.9918 17.4418 54.8344 16.9728 54.5195 16.6413C54.208 16.3066 53.7755 16.1392 53.2219 16.1392C52.8375 16.1392 52.4928 16.2204 52.1879 16.3828C51.8862 16.5452 51.6476 16.7822 51.4719 17.0938C51.2996 17.4053 51.2134 17.7831 51.2134 18.2273Z" fill="white" fill-opacity="0.8"/>
<path d="M62.4082 22.821V12.6392H68.5133V13.733H63.6412V17.1733H68.0559V18.267H63.6412V22.821H62.4082Z" fill="white" fill-opacity="0.8"/>
<path d="M73.0076 22.9801C72.3182 22.9801 71.7134 22.8161 71.193 22.4879C70.676 22.1598 70.2716 21.7008 69.9799 21.1108C69.6916 20.5208 69.5474 19.8314 69.5474 19.0426C69.5474 18.2472 69.6916 17.5528 69.9799 16.9595C70.2716 16.3662 70.676 15.9055 71.193 15.5774C71.7134 15.2493 72.3182 15.0852 73.0076 15.0852C73.697 15.0852 74.3002 15.2493 74.8173 15.5774C75.3377 15.9055 75.742 16.3662 76.0304 16.9595C76.322 17.5528 76.4679 18.2472 76.4679 19.0426C76.4679 19.8314 76.322 20.5208 76.0304 21.1108C75.742 21.7008 75.3377 22.1598 74.8173 22.4879C74.3002 22.8161 73.697 22.9801 73.0076 22.9801ZM73.0076 21.9261C73.5313 21.9261 73.9622 21.7919 74.3002 21.5234C74.6383 21.255 74.8886 20.902 75.051 20.4645C75.2134 20.027 75.2946 19.553 75.2946 19.0426C75.2946 18.5322 75.2134 18.0566 75.051 17.6158C74.8886 17.175 74.6383 16.8187 74.3002 16.5469C73.9622 16.2751 73.5313 16.1392 73.0076 16.1392C72.484 16.1392 72.0531 16.2751 71.715 16.5469C71.377 16.8187 71.1267 17.175 70.9643 17.6158C70.8019 18.0566 70.7207 18.5322 70.7207 19.0426C70.7207 19.553 70.8019 20.027 70.9643 20.4645C71.1267 20.902 71.377 21.255 71.715 21.5234C72.0531 21.7919 72.484 21.9261 73.0076 21.9261Z" fill="white" fill-opacity="0.8"/>
<path d="M79.4322 12.6392V22.821H78.2589V12.6392H79.4322Z" fill="white" fill-opacity="0.8"/>
<path d="M84.4647 22.9801C83.8283 22.9801 83.2665 22.8194 82.7793 22.4979C82.2921 22.1731 81.9109 21.7157 81.6358 21.1257C81.3607 20.5324 81.2232 19.8314 81.2232 19.0227C81.2232 18.2206 81.3607 17.5246 81.6358 16.9347C81.9109 16.3447 82.2937 15.889 82.7843 15.5675C83.2748 15.246 83.8416 15.0852 84.4846 15.0852C84.9817 15.0852 85.3745 15.1681 85.6628 15.3338C85.9545 15.4962 86.1765 15.6818 86.329 15.8906C86.4848 16.0961 86.6058 16.2652 86.6919 16.3977H86.7914V12.6392H87.9647V22.821H86.8311V21.6477H86.6919C86.6058 21.7869 86.4831 21.9626 86.324 22.1747C86.165 22.3835 85.9379 22.5708 85.6429 22.7365C85.348 22.8989 84.9552 22.9801 84.4647 22.9801ZM84.6238 21.9261C85.0944 21.9261 85.4921 21.8035 85.8169 21.5582C86.1418 21.3097 86.3887 20.9666 86.5577 20.5291C86.7267 20.0883 86.8113 19.5795 86.8113 19.0028C86.8113 18.4328 86.7284 17.9339 86.5627 17.5064C86.397 17.0755 86.1517 16.7408 85.8269 16.5021C85.5021 16.2602 85.101 16.1392 84.6238 16.1392C84.1266 16.1392 83.7123 16.2668 83.3809 16.522C83.0527 16.7739 82.8058 17.117 82.6401 17.5511C82.4777 17.982 82.3965 18.4659 82.3965 19.0028C82.3965 19.5464 82.4793 20.0402 82.6451 20.4844C82.8141 20.9252 83.0627 21.2765 83.3908 21.5384C83.7222 21.7969 84.1332 21.9261 84.6238 21.9261Z" fill="white" fill-opacity="0.8"/>
<path d="M93.4782 22.9801C92.7424 22.9801 92.1077 22.8177 91.574 22.4929C91.0437 22.1648 90.6344 21.7074 90.3461 21.1207C90.061 20.5308 89.9185 19.8447 89.9185 19.0625C89.9185 18.2803 90.061 17.5909 90.3461 16.9943C90.6344 16.3944 91.0355 15.9271 91.5492 15.5923C92.0662 15.2543 92.6694 15.0852 93.3588 15.0852C93.7566 15.0852 94.1493 15.1515 94.5371 15.2841C94.9249 15.4167 95.2779 15.6321 95.5961 15.9304C95.9142 16.2254 96.1678 16.6165 96.3567 17.1037C96.5456 17.5909 96.6401 18.1908 96.6401 18.9034V19.4006H90.7537V18.3864H95.4469C95.4469 17.9555 95.3607 17.571 95.1884 17.233C95.0194 16.8949 94.7774 16.6281 94.4625 16.4325C94.151 16.237 93.7831 16.1392 93.3588 16.1392C92.8915 16.1392 92.4872 16.2552 92.1458 16.4872C91.8077 16.7159 91.5475 17.0142 91.3652 17.3821C91.1829 17.75 91.0918 18.1444 91.0918 18.5653V19.2415C91.0918 19.8182 91.1912 20.3071 91.3901 20.7081C91.5923 21.1058 91.8723 21.4091 92.2303 21.6179C92.5882 21.8234 93.0042 21.9261 93.4782 21.9261C93.7864 21.9261 94.0648 21.883 94.3134 21.7969C94.5653 21.7074 94.7824 21.5748 94.9647 21.3991C95.147 21.2202 95.2878 20.9981 95.3873 20.733L96.5208 21.0511C96.4015 21.4356 96.2009 21.7737 95.9192 22.0653C95.6375 22.3537 95.2895 22.5791 94.8752 22.7415C94.4609 22.9006 93.9952 22.9801 93.4782 22.9801Z" fill="white" fill-opacity="0.8"/>
<path d="M98.4249 22.821V15.1847H99.5584V16.3381H99.638C99.7772 15.9602 100.029 15.6536 100.394 15.4183C100.758 15.183 101.169 15.0653 101.627 15.0653C101.713 15.0653 101.82 15.067 101.95 15.0703C102.079 15.0736 102.177 15.0786 102.243 15.0852V16.2784C102.203 16.2685 102.112 16.2536 101.97 16.2337C101.83 16.2105 101.683 16.1989 101.527 16.1989C101.156 16.1989 100.825 16.2768 100.533 16.4325C100.244 16.585 100.016 16.7971 99.8468 17.0689C99.6811 17.3374 99.5982 17.6439 99.5982 17.9886V22.821H98.4249Z" fill="white" fill-opacity="0.8"/>
<path d="M109.043 16.8949L107.989 17.1932C107.923 17.0175 107.825 16.8468 107.696 16.6811C107.57 16.5121 107.397 16.3729 107.179 16.2635C106.96 16.1541 106.68 16.0994 106.338 16.0994C105.871 16.0994 105.482 16.2071 105.17 16.4226C104.862 16.6347 104.708 16.9048 104.708 17.233C104.708 17.5246 104.814 17.755 105.026 17.924C105.238 18.093 105.569 18.2339 106.02 18.3466L107.154 18.625C107.837 18.7907 108.345 19.0443 108.68 19.3857C109.015 19.7237 109.182 20.1596 109.182 20.6932C109.182 21.1307 109.056 21.5218 108.804 21.8665C108.556 22.2112 108.208 22.483 107.76 22.6818C107.313 22.8807 106.792 22.9801 106.199 22.9801C105.42 22.9801 104.776 22.8111 104.265 22.473C103.755 22.1349 103.432 21.6411 103.296 20.9915L104.409 20.7131C104.516 21.1241 104.716 21.4323 105.011 21.6378C105.309 21.8433 105.699 21.946 106.179 21.946C106.726 21.946 107.16 21.83 107.482 21.598C107.807 21.3627 107.969 21.081 107.969 20.7528C107.969 20.4877 107.876 20.2656 107.691 20.0866C107.505 19.9044 107.22 19.7685 106.836 19.679L105.563 19.3807C104.864 19.215 104.35 18.9581 104.022 18.6101C103.697 18.2588 103.534 17.8196 103.534 17.2926C103.534 16.8617 103.655 16.4806 103.897 16.1491C104.143 15.8177 104.476 15.5575 104.897 15.3686C105.321 15.1797 105.801 15.0852 106.338 15.0852C107.094 15.0852 107.687 15.2509 108.118 15.5824C108.552 15.9138 108.861 16.3513 109.043 16.8949Z" fill="white" fill-opacity="0.8"/>
<path d="M117.769 22.9602C117.1 22.9602 116.523 22.8376 116.039 22.5923C115.555 22.3471 115.182 22.0107 114.921 21.5831C114.659 21.1555 114.528 20.6667 114.528 20.1165C114.528 19.6922 114.617 19.3161 114.796 18.9879C114.979 18.6565 115.229 18.3499 115.547 18.0682C115.869 17.7831 116.238 17.4981 116.656 17.2131L118.127 16.1193C118.416 15.9304 118.646 15.7282 118.818 15.5128C118.994 15.2973 119.082 15.0156 119.082 14.6676C119.082 14.4091 118.968 14.1589 118.739 13.9169C118.513 13.675 118.217 13.554 117.849 13.554C117.59 13.554 117.362 13.6203 117.163 13.7528C116.967 13.8821 116.813 14.0478 116.7 14.25C116.591 14.4489 116.536 14.6544 116.536 14.8665C116.536 15.1051 116.601 15.3471 116.73 15.5923C116.863 15.8343 117.03 16.0829 117.232 16.3381C117.438 16.59 117.65 16.8485 117.869 17.1136L122.542 22.821H121.13L117.272 18.1676C116.914 17.7367 116.589 17.3456 116.298 16.9943C116.006 16.643 115.774 16.2966 115.602 15.9553C115.429 15.6139 115.343 15.2443 115.343 14.8466C115.343 14.3892 115.444 13.9882 115.646 13.6435C115.852 13.2955 116.139 13.0253 116.507 12.8331C116.878 12.6375 117.312 12.5398 117.809 12.5398C118.32 12.5398 118.759 12.6392 119.127 12.8381C119.494 13.0336 119.778 13.2938 119.977 13.6186C120.176 13.9401 120.275 14.2898 120.275 14.6676C120.275 15.1548 120.154 15.5774 119.912 15.9354C119.67 16.2933 119.34 16.6264 118.923 16.9347L116.894 18.446C116.437 18.7841 116.127 19.1122 115.965 19.4304C115.802 19.7486 115.721 19.9773 115.721 20.1165C115.721 20.4347 115.804 20.7313 115.97 21.0064C116.135 21.2815 116.369 21.5036 116.671 21.6726C116.972 21.8416 117.325 21.9261 117.73 21.9261C118.114 21.9261 118.489 21.8449 118.853 21.6825C119.218 21.5168 119.548 21.2782 119.843 20.9666C120.141 20.6551 120.376 20.2805 120.548 19.843C120.724 19.4055 120.812 18.9134 120.812 18.3665H121.945C121.945 19.0426 121.868 19.5945 121.712 20.022C121.556 20.4496 121.38 20.7843 121.185 21.0263C120.989 21.2682 120.832 21.4489 120.713 21.5682C120.673 21.6179 120.636 21.6676 120.603 21.7173C120.57 21.767 120.534 21.8168 120.494 21.8665C120.166 22.2344 119.751 22.5095 119.251 22.6918C118.75 22.8707 118.257 22.9602 117.769 22.9602Z" fill="white" fill-opacity="0.8"/>
<path d="M127.938 22.821V12.6392H131.497C132.206 12.6392 132.791 12.7618 133.252 13.0071C133.713 13.2491 134.056 13.5755 134.281 13.9865C134.507 14.3942 134.619 14.8466 134.619 15.3438C134.619 15.7812 134.541 16.1425 134.386 16.4276C134.233 16.7126 134.031 16.938 133.779 17.1037C133.531 17.2694 133.26 17.392 132.969 17.4716V17.571C133.28 17.5909 133.594 17.7003 133.908 17.8991C134.223 18.098 134.487 18.383 134.699 18.7543C134.911 19.1255 135.017 19.5795 135.017 20.1165C135.017 20.6269 134.901 21.0859 134.669 21.4936C134.437 21.9013 134.071 22.2244 133.57 22.4631C133.07 22.7017 132.419 22.821 131.616 22.821H127.938ZM129.17 21.7273H131.616C132.422 21.7273 132.994 21.5715 133.332 21.2599C133.673 20.9451 133.844 20.5639 133.844 20.1165C133.844 19.7718 133.756 19.4536 133.58 19.1619C133.405 18.867 133.154 18.6316 132.83 18.456C132.505 18.277 132.12 18.1875 131.676 18.1875H129.17V21.7273ZM129.17 17.1136H131.457C131.829 17.1136 132.163 17.0407 132.462 16.8949C132.763 16.7491 133.002 16.5436 133.178 16.2784C133.357 16.0133 133.446 15.7017 133.446 15.3438C133.446 14.8963 133.29 14.5168 132.979 14.2053C132.667 13.8904 132.173 13.733 131.497 13.733H129.17V17.1136Z" fill="white" fill-opacity="0.8"/>
<path d="M139.986 22.9801C139.297 22.9801 138.692 22.8161 138.172 22.4879C137.654 22.1598 137.25 21.7008 136.958 21.1108C136.67 20.5208 136.526 19.8314 136.526 19.0426C136.526 18.2472 136.67 17.5528 136.958 16.9595C137.25 16.3662 137.654 15.9055 138.172 15.5774C138.692 15.2493 139.297 15.0852 139.986 15.0852C140.676 15.0852 141.279 15.2493 141.796 15.5774C142.316 15.9055 142.721 16.3662 143.009 16.9595C143.301 17.5528 143.446 18.2472 143.446 19.0426C143.446 19.8314 143.301 20.5208 143.009 21.1108C142.721 21.7008 142.316 22.1598 141.796 22.4879C141.279 22.8161 140.676 22.9801 139.986 22.9801ZM139.986 21.9261C140.51 21.9261 140.941 21.7919 141.279 21.5234C141.617 21.255 141.867 20.902 142.029 20.4645C142.192 20.027 142.273 19.553 142.273 19.0426C142.273 18.5322 142.192 18.0566 142.029 17.6158C141.867 17.175 141.617 16.8187 141.279 16.5469C140.941 16.2751 140.51 16.1392 139.986 16.1392C139.462 16.1392 139.032 16.2751 138.694 16.5469C138.355 16.8187 138.105 17.175 137.943 17.6158C137.78 18.0566 137.699 18.5322 137.699 19.0426C137.699 19.553 137.78 20.027 137.943 20.4645C138.105 20.902 138.355 21.255 138.694 21.5234C139.032 21.7919 139.462 21.9261 139.986 21.9261Z" fill="white" fill-opacity="0.8"/>
<path d="M147.485 23C147.001 23 146.561 22.9089 146.167 22.7266C145.773 22.541 145.459 22.2741 145.227 21.9261C144.995 21.5748 144.879 21.1506 144.879 20.6534C144.879 20.2159 144.966 19.8613 145.138 19.5895C145.31 19.3144 145.541 19.099 145.829 18.9432C146.117 18.7874 146.436 18.6714 146.784 18.5952C147.135 18.5156 147.488 18.4527 147.843 18.4063C148.307 18.3466 148.683 18.3018 148.971 18.272C149.263 18.2389 149.475 18.1842 149.607 18.108C149.743 18.0317 149.811 17.8991 149.811 17.7102V17.6705C149.811 17.1799 149.677 16.7988 149.409 16.527C149.143 16.2552 148.741 16.1193 148.2 16.1193C147.64 16.1193 147.201 16.242 146.883 16.4872C146.565 16.7325 146.341 16.9943 146.212 17.2727L145.098 16.875C145.297 16.411 145.562 16.0497 145.894 15.7912C146.228 15.5294 146.593 15.3471 146.987 15.2443C147.385 15.1383 147.776 15.0852 148.161 15.0852C148.406 15.0852 148.688 15.1151 149.006 15.1747C149.327 15.2311 149.637 15.3487 149.936 15.5277C150.237 15.7067 150.487 15.9768 150.686 16.3381C150.885 16.6993 150.985 17.1832 150.985 17.7898V22.821H149.811V21.7869H149.752C149.672 21.9527 149.539 22.13 149.354 22.3189C149.168 22.5078 148.921 22.6686 148.613 22.8011C148.305 22.9337 147.929 23 147.485 23ZM147.664 21.946C148.128 21.946 148.519 21.8549 148.837 21.6726C149.158 21.4903 149.4 21.255 149.563 20.9666C149.728 20.6783 149.811 20.375 149.811 20.0568V18.983C149.762 19.0426 149.652 19.0973 149.483 19.147C149.317 19.1934 149.125 19.2348 148.906 19.2713C148.691 19.3045 148.481 19.3343 148.275 19.3608C148.073 19.384 147.909 19.4039 147.783 19.4205C147.478 19.4602 147.193 19.5249 146.928 19.6143C146.666 19.7005 146.454 19.8314 146.291 20.0071C146.132 20.1795 146.053 20.4148 146.053 20.7131C146.053 21.1207 146.204 21.429 146.505 21.6378C146.81 21.8433 147.196 21.946 147.664 21.946Z" fill="white" fill-opacity="0.8"/>
<path d="M153.126 22.821V15.1847H154.26V16.3381H154.339C154.478 15.9602 154.73 15.6536 155.095 15.4183C155.459 15.183 155.87 15.0653 156.328 15.0653C156.414 15.0653 156.522 15.067 156.651 15.0703C156.78 15.0736 156.878 15.0786 156.944 15.0852V16.2784C156.904 16.2685 156.813 16.2536 156.671 16.2337C156.532 16.2105 156.384 16.1989 156.228 16.1989C155.857 16.1989 155.526 16.2768 155.234 16.4325C154.946 16.585 154.717 16.7971 154.548 17.0689C154.382 17.3374 154.299 17.6439 154.299 17.9886V22.821H153.126Z" fill="white" fill-opacity="0.8"/>
<path d="M160.986 22.9801C160.35 22.9801 159.788 22.8194 159.301 22.4979C158.814 22.1731 158.432 21.7157 158.157 21.1257C157.882 20.5324 157.745 19.8314 157.745 19.0227C157.745 18.2206 157.882 17.5246 158.157 16.9347C158.432 16.3447 158.815 15.889 159.306 15.5675C159.796 15.246 160.363 15.0852 161.006 15.0852C161.503 15.0852 161.896 15.1681 162.184 15.3338C162.476 15.4962 162.698 15.6818 162.85 15.8906C163.006 16.0961 163.127 16.2652 163.213 16.3977H163.313V12.6392H164.486V22.821H163.353V21.6477H163.213C163.127 21.7869 163.005 21.9626 162.846 22.1747C162.686 22.3835 162.459 22.5708 162.164 22.7365C161.869 22.8989 161.477 22.9801 160.986 22.9801ZM161.145 21.9261C161.616 21.9261 162.014 21.8035 162.338 21.5582C162.663 21.3097 162.91 20.9666 163.079 20.5291C163.248 20.0883 163.333 19.5795 163.333 19.0028C163.333 18.4328 163.25 17.9339 163.084 17.5064C162.918 17.0755 162.673 16.7408 162.348 16.5021C162.024 16.2602 161.623 16.1392 161.145 16.1392C160.648 16.1392 160.234 16.2668 159.902 16.522C159.574 16.7739 159.327 17.117 159.162 17.5511C158.999 17.982 158.918 18.4659 158.918 19.0028C158.918 19.5464 159.001 20.0402 159.167 20.4844C159.336 20.9252 159.584 21.2765 159.912 21.5384C160.244 21.7969 160.655 21.9261 161.145 21.9261Z" fill="white" fill-opacity="0.8"/>
<path d="M172.207 16.8949L171.153 17.1932C171.087 17.0175 170.989 16.8468 170.86 16.6811C170.734 16.5121 170.561 16.3729 170.343 16.2635C170.124 16.1541 169.844 16.0994 169.502 16.0994C169.035 16.0994 168.646 16.2071 168.334 16.4226C168.026 16.6347 167.872 16.9048 167.872 17.233C167.872 17.5246 167.978 17.755 168.19 17.924C168.402 18.093 168.734 18.2339 169.184 18.3466L170.318 18.625C171.001 18.7907 171.509 19.0443 171.844 19.3857C172.179 19.7237 172.346 20.1596 172.346 20.6932C172.346 21.1307 172.22 21.5218 171.968 21.8665C171.72 22.2112 171.372 22.483 170.924 22.6818C170.477 22.8807 169.957 22.9801 169.363 22.9801C168.584 22.9801 167.94 22.8111 167.429 22.473C166.919 22.1349 166.596 21.6411 166.46 20.9915L167.574 20.7131C167.68 21.1241 167.88 21.4323 168.175 21.6378C168.473 21.8433 168.863 21.946 169.343 21.946C169.89 21.946 170.324 21.83 170.646 21.598C170.971 21.3627 171.133 21.081 171.133 20.7528C171.133 20.4877 171.04 20.2656 170.855 20.0866C170.669 19.9044 170.384 19.7685 170 19.679L168.727 19.3807C168.028 19.215 167.514 18.9581 167.186 18.6101C166.861 18.2588 166.699 17.8196 166.699 17.2926C166.699 16.8617 166.819 16.4806 167.061 16.1491C167.307 15.8177 167.64 15.5575 168.061 15.3686C168.485 15.1797 168.966 15.0852 169.502 15.0852C170.258 15.0852 170.851 15.2509 171.282 15.5824C171.717 15.9138 172.025 16.3513 172.207 16.8949Z" fill="white" fill-opacity="0.8"/>
<g opacity="0.8" clip-path="url(#clip0_15_933)">
<path d="M160 35C160 47 165.5 72.5 195 71.5" stroke="white" stroke-width="2"/>
<path d="M188.588 64L196 71L187 78" stroke="white" stroke-width="2" stroke-linejoin="round"/>
</g>
<defs>
<clipPath id="clip0_15_933">
<rect width="45" height="38" fill="white" transform="translate(197 34) rotate(90)"/>
</clipPath>
</defs>
</svg>
