<svg width="232" height="79" viewBox="0 0 232 79" fill="none" xmlns="http://www.w3.org/2000/svg">
<rect x="5" y="44" width="226.758" height="34.8381" rx="8" fill="white" fill-opacity="0.05"/>
<path d="M25.5909 59.6591H24.358C24.285 59.3045 24.1574 58.9929 23.9751 58.7244C23.7962 58.456 23.5774 58.2306 23.3189 58.0483C23.0637 57.8627 22.7803 57.7235 22.4688 57.6307C22.1572 57.5379 21.8324 57.4915 21.4943 57.4915C20.8778 57.4915 20.3194 57.6473 19.8189 57.9588C19.3217 58.2704 18.9257 58.7294 18.6307 59.3359C18.339 59.9425 18.1932 60.6866 18.1932 61.5682C18.1932 62.4498 18.339 63.1939 18.6307 63.8004C18.9257 64.407 19.3217 64.866 19.8189 65.1776C20.3194 65.4891 20.8778 65.6449 21.4943 65.6449C21.8324 65.6449 22.1572 65.5985 22.4688 65.5057C22.7803 65.4129 23.0637 65.2753 23.3189 65.093C23.5774 64.9074 23.7962 64.6804 23.9751 64.4119C24.1574 64.1402 24.285 63.8286 24.358 63.4773H25.5909C25.4981 63.9976 25.3291 64.4633 25.0838 64.8743C24.8385 65.2853 24.5336 65.6349 24.169 65.9233C23.8045 66.2083 23.3951 66.4254 22.9411 66.5746C22.4903 66.7237 22.008 66.7983 21.4943 66.7983C20.6259 66.7983 19.8537 66.5862 19.1776 66.1619C18.5014 65.7377 17.9695 65.1345 17.5817 64.3523C17.1939 63.5701 17 62.642 17 61.5682C17 60.4943 17.1939 59.5663 17.5817 58.7841C17.9695 58.0019 18.5014 57.3987 19.1776 56.9744C19.8537 56.5502 20.6259 56.3381 21.4943 56.3381C22.008 56.3381 22.4903 56.4126 22.9411 56.5618C23.3951 56.7109 23.8045 56.9297 24.169 57.218C24.5336 57.5031 24.8385 57.8511 25.0838 58.2621C25.3291 58.6697 25.4981 59.1354 25.5909 59.6591Z" fill="white" fill-opacity="0.8"/>
<path d="M27.4242 66.6591V59.0227H28.5577V60.1761H28.6373C28.7765 59.7983 29.0283 59.4917 29.3929 59.2564C29.7575 59.0211 30.1685 58.9034 30.6259 58.9034C30.7121 58.9034 30.8198 58.9051 30.949 58.9084C31.0783 58.9117 31.1761 58.9167 31.2424 58.9233V60.1165C31.2026 60.1065 31.1114 60.0916 30.9689 60.0717C30.8297 60.0485 30.6822 60.0369 30.5265 60.0369C30.1552 60.0369 29.8238 60.1148 29.5321 60.2706C29.2438 60.4231 29.0151 60.6352 28.8461 60.907C28.6803 61.1754 28.5975 61.482 28.5975 61.8267V66.6591H27.4242Z" fill="white" fill-opacity="0.8"/>
<path d="M35.6025 66.8182C34.8667 66.8182 34.2319 66.6558 33.6983 66.331C33.168 66.0028 32.7587 65.5455 32.4703 64.9588C32.1853 64.3688 32.0428 63.6828 32.0428 62.9006C32.0428 62.1184 32.1853 61.429 32.4703 60.8324C32.7587 60.2325 33.1597 59.7652 33.6735 59.4304C34.1905 59.0923 34.7937 58.9233 35.4831 58.9233C35.8809 58.9233 36.2736 58.9896 36.6614 59.1222C37.0492 59.2547 37.4022 59.4702 37.7203 59.7685C38.0385 60.0634 38.2921 60.4545 38.481 60.9418C38.6699 61.429 38.7644 62.0289 38.7644 62.7415V63.2386H32.878V62.2244H37.5712C37.5712 61.7936 37.485 61.4091 37.3127 61.071C37.1436 60.733 36.9017 60.4661 36.5868 60.2706C36.2753 60.075 35.9074 59.9773 35.4831 59.9773C35.0158 59.9773 34.6114 60.0933 34.2701 60.3253C33.932 60.554 33.6718 60.8523 33.4895 61.2202C33.3072 61.5881 33.2161 61.9825 33.2161 62.4034V63.0795C33.2161 63.6563 33.3155 64.1451 33.5144 64.5462C33.7166 64.9439 33.9966 65.2472 34.3546 65.456C34.7125 65.6615 35.1285 65.7642 35.6025 65.7642C35.9107 65.7642 36.1891 65.7211 36.4377 65.6349C36.6896 65.5455 36.9067 65.4129 37.089 65.2372C37.2712 65.0582 37.4121 64.8362 37.5115 64.571L38.6451 64.8892C38.5257 65.2737 38.3252 65.6117 38.0435 65.9034C37.7618 66.1918 37.4138 66.4171 36.9995 66.5795C36.5852 66.7386 36.1195 66.8182 35.6025 66.8182Z" fill="white" fill-opacity="0.8"/>
<path d="M42.7963 66.8381C42.3124 66.8381 41.8733 66.7469 41.4789 66.5646C41.0845 66.379 40.7712 66.1122 40.5392 65.7642C40.3072 65.4129 40.1912 64.9886 40.1912 64.4915C40.1912 64.054 40.2774 63.6993 40.4498 63.4276C40.6221 63.1525 40.8525 62.937 41.1408 62.7813C41.4292 62.6255 41.7473 62.5095 42.0953 62.4332C42.4467 62.3537 42.7997 62.2907 43.1543 62.2443C43.6183 62.1847 43.9945 62.1399 44.2828 62.1101C44.5745 62.0769 44.7866 62.0223 44.9192 61.946C45.0551 61.8698 45.123 61.7372 45.123 61.5483V61.5085C45.123 61.018 44.9888 60.6368 44.7203 60.3651C44.4552 60.0933 44.0525 59.9574 43.5123 59.9574C42.9521 59.9574 42.513 60.08 42.1948 60.3253C41.8766 60.5705 41.6529 60.8324 41.5236 61.1108L40.41 60.7131C40.6088 60.2491 40.874 59.8878 41.2054 59.6293C41.5402 59.3674 41.9048 59.1851 42.2992 59.0824C42.6969 58.9763 43.088 58.9233 43.4725 58.9233C43.7177 58.9233 43.9995 58.9531 44.3176 59.0128C44.6391 59.0691 44.949 59.1868 45.2473 59.3658C45.5489 59.5447 45.7992 59.8149 45.998 60.1761C46.1969 60.5374 46.2963 61.0213 46.2963 61.6278V66.6591H45.123V65.625H45.0634C44.9838 65.7907 44.8513 65.968 44.6657 66.157C44.4801 66.3459 44.2331 66.5066 43.9249 66.6392C43.6167 66.7718 43.2405 66.8381 42.7963 66.8381ZM42.9753 65.7841C43.4393 65.7841 43.8304 65.6929 44.1486 65.5107C44.4701 65.3284 44.7121 65.093 44.8745 64.8047C45.0402 64.5163 45.123 64.2131 45.123 63.8949V62.821C45.0733 62.8807 44.964 62.9354 44.7949 62.9851C44.6292 63.0315 44.437 63.0729 44.2182 63.1094C44.0028 63.1425 43.7923 63.1723 43.5868 63.1989C43.3846 63.2221 43.2206 63.242 43.0946 63.2585C42.7897 63.2983 42.5047 63.3629 42.2395 63.4524C41.9777 63.5386 41.7656 63.6695 41.6032 63.8452C41.4441 64.0175 41.3645 64.2528 41.3645 64.5511C41.3645 64.9588 41.5153 65.267 41.8169 65.4759C42.1219 65.6813 42.508 65.7841 42.9753 65.7841Z" fill="white" fill-opacity="0.8"/>
<path d="M51.7589 59.0227V60.017H47.8015V59.0227H51.7589ZM48.9549 57.1932H50.1282V64.4716C50.1282 64.803 50.1763 65.0516 50.2724 65.2173C50.3718 65.3797 50.4977 65.4891 50.6502 65.5455C50.806 65.5985 50.9701 65.625 51.1424 65.625C51.2717 65.625 51.3777 65.6184 51.4606 65.6051C51.5434 65.5885 51.6097 65.5753 51.6594 65.5653L51.8981 66.6193C51.8185 66.6491 51.7075 66.679 51.565 66.7088C51.4225 66.742 51.2418 66.7585 51.0231 66.7585C50.6916 66.7585 50.3668 66.6873 50.0486 66.5447C49.7338 66.4022 49.4719 66.1851 49.2631 65.8935C49.0576 65.6018 48.9549 65.2339 48.9549 64.7898V57.1932Z" fill="white" fill-opacity="0.8"/>
<path d="M56.6435 66.8182C55.9077 66.8182 55.273 66.6558 54.7393 66.331C54.209 66.0028 53.7997 65.5455 53.5114 64.9588C53.2263 64.3688 53.0838 63.6828 53.0838 62.9006C53.0838 62.1184 53.2263 61.429 53.5114 60.8324C53.7997 60.2325 54.2008 59.7652 54.7145 59.4304C55.2315 59.0923 55.8348 58.9233 56.5241 58.9233C56.9219 58.9233 57.3146 58.9896 57.7024 59.1222C58.0902 59.2547 58.4432 59.4702 58.7614 59.7685C59.0795 60.0634 59.3331 60.4545 59.522 60.9418C59.7109 61.429 59.8054 62.0289 59.8054 62.7415V63.2386H53.919V62.2244H58.6122C58.6122 61.7936 58.526 61.4091 58.3537 61.071C58.1847 60.733 57.9427 60.4661 57.6278 60.2706C57.3163 60.075 56.9484 59.9773 56.5241 59.9773C56.0568 59.9773 55.6525 60.0933 55.3111 60.3253C54.973 60.554 54.7128 60.8523 54.5305 61.2202C54.3482 61.5881 54.2571 61.9825 54.2571 62.4034V63.0795C54.2571 63.6563 54.3565 64.1451 54.5554 64.5462C54.7576 64.9439 55.0376 65.2472 55.3956 65.456C55.7536 65.6615 56.1695 65.7642 56.6435 65.7642C56.9517 65.7642 57.2301 65.7211 57.4787 65.6349C57.7306 65.5455 57.9477 65.4129 58.13 65.2372C58.3123 65.0582 58.4531 64.8362 58.5526 64.571L59.6861 64.8892C59.5668 65.2737 59.3662 65.6117 59.0845 65.9034C58.8028 66.1918 58.4548 66.4171 58.0405 66.5795C57.6262 66.7386 57.1605 66.8182 56.6435 66.8182Z" fill="white" fill-opacity="0.8"/>
<path d="M66.701 62.0653V66.6591H65.5277V59.0227H66.6612V60.2159H66.7607C66.9396 59.8281 67.2114 59.5166 67.576 59.2813C67.9406 59.0426 68.4112 58.9233 68.9879 58.9233C69.505 58.9233 69.9574 59.0294 70.3452 59.2415C70.733 59.4503 71.0346 59.7685 71.25 60.196C71.4654 60.6203 71.5732 61.1572 71.5732 61.8068V66.6591H70.3999V61.8864C70.3999 61.2865 70.2441 60.8191 69.9325 60.4844C69.621 60.1463 69.1934 59.9773 68.6499 59.9773C68.2753 59.9773 67.9406 60.0585 67.6456 60.2209C67.3539 60.3833 67.1236 60.6203 66.9545 60.9318C66.7855 61.2434 66.701 61.6212 66.701 62.0653Z" fill="white" fill-opacity="0.8"/>
<path d="M76.9189 66.8182C76.1831 66.8182 75.5484 66.6558 75.0147 66.331C74.4844 66.0028 74.0751 65.5455 73.7868 64.9588C73.5017 64.3688 73.3592 63.6828 73.3592 62.9006C73.3592 62.1184 73.5017 61.429 73.7868 60.8324C74.0751 60.2325 74.4761 59.7652 74.9899 59.4304C75.5069 59.0923 76.1101 58.9233 76.7995 58.9233C77.1973 58.9233 77.59 58.9896 77.9778 59.1222C78.3656 59.2547 78.7186 59.4702 79.0368 59.7685C79.3549 60.0634 79.6085 60.4545 79.7974 60.9418C79.9863 61.429 80.0808 62.0289 80.0808 62.7415V63.2386H74.1944V62.2244H78.8876C78.8876 61.7936 78.8014 61.4091 78.6291 61.071C78.4601 60.733 78.2181 60.4661 77.9032 60.2706C77.5917 60.075 77.2238 59.9773 76.7995 59.9773C76.3322 59.9773 75.9279 60.0933 75.5865 60.3253C75.2484 60.554 74.9882 60.8523 74.8059 61.2202C74.6236 61.5881 74.5325 61.9825 74.5325 62.4034V63.0795C74.5325 63.6563 74.6319 64.1451 74.8308 64.5462C75.033 64.9439 75.313 65.2472 75.671 65.456C76.0289 65.6615 76.4449 65.7642 76.9189 65.7642C77.2271 65.7642 77.5055 65.7211 77.7541 65.6349C78.006 65.5455 78.2231 65.4129 78.4054 65.2372C78.5877 65.0582 78.7285 64.8362 78.8279 64.571L79.9615 64.8892C79.8422 65.2737 79.6416 65.6117 79.3599 65.9034C79.0782 66.1918 78.7302 66.4171 78.3159 66.5795C77.9016 66.7386 77.4359 66.8182 76.9189 66.8182Z" fill="white" fill-opacity="0.8"/>
<path d="M83.5957 66.6591L81.269 59.0227H82.502L84.1525 64.8693H84.2321L85.8627 59.0227H87.1156L88.7264 64.8494H88.8059L90.4565 59.0227H91.6895L89.3627 66.6591H88.2093L86.5389 60.7926H86.4196L84.7491 66.6591H83.5957Z" fill="white" fill-opacity="0.8"/>
<path d="M100.579 59.0227V60.017H96.4622V59.0227H100.579ZM97.6951 66.6591V57.9688C97.6951 57.5313 97.7979 57.1667 98.0034 56.875C98.2089 56.5833 98.4757 56.3646 98.8038 56.2188C99.1319 56.0729 99.4783 56 99.8429 56C100.131 56 100.367 56.0232 100.549 56.0696C100.731 56.116 100.867 56.1591 100.956 56.1989L100.618 57.2131C100.559 57.1932 100.476 57.1683 100.37 57.1385C100.267 57.1087 100.131 57.0938 99.9622 57.0938C99.5744 57.0938 99.2943 57.1915 99.122 57.3871C98.9529 57.5826 98.8684 57.8693 98.8684 58.2472V66.6591H97.6951Z" fill="white" fill-opacity="0.8"/>
<path d="M105.011 66.8182C104.321 66.8182 103.717 66.6541 103.196 66.326C102.679 65.9979 102.275 65.5388 101.983 64.9489C101.695 64.3589 101.551 63.6695 101.551 62.8807C101.551 62.0852 101.695 61.3909 101.983 60.7976C102.275 60.2043 102.679 59.7436 103.196 59.4155C103.717 59.0874 104.321 58.9233 105.011 58.9233C105.7 58.9233 106.303 59.0874 106.82 59.4155C107.341 59.7436 107.745 60.2043 108.034 60.7976C108.325 61.3909 108.471 62.0852 108.471 62.8807C108.471 63.6695 108.325 64.3589 108.034 64.9489C107.745 65.5388 107.341 65.9979 106.82 66.326C106.303 66.6541 105.7 66.8182 105.011 66.8182ZM105.011 65.7642C105.535 65.7642 105.965 65.63 106.303 65.3615C106.642 65.093 106.892 64.7401 107.054 64.3026C107.217 63.8651 107.298 63.3911 107.298 62.8807C107.298 62.3703 107.217 61.8946 107.054 61.4538C106.892 61.013 106.642 60.6567 106.303 60.3849C105.965 60.1132 105.535 59.9773 105.011 59.9773C104.487 59.9773 104.056 60.1132 103.718 60.3849C103.38 60.6567 103.13 61.013 102.968 61.4538C102.805 61.8946 102.724 62.3703 102.724 62.8807C102.724 63.3911 102.805 63.8651 102.968 64.3026C103.13 64.7401 103.38 65.093 103.718 65.3615C104.056 65.63 104.487 65.7642 105.011 65.7642Z" fill="white" fill-opacity="0.8"/>
<path d="M111.435 56.4773V66.6591H110.262V56.4773H111.435Z" fill="white" fill-opacity="0.8"/>
<path d="M116.468 66.8182C115.832 66.8182 115.27 66.6574 114.782 66.3359C114.295 66.0111 113.914 65.5537 113.639 64.9638C113.364 64.3705 113.226 63.6695 113.226 62.8608C113.226 62.0587 113.364 61.3627 113.639 60.7727C113.914 60.1828 114.297 59.727 114.787 59.4055C115.278 59.084 115.845 58.9233 116.488 58.9233C116.985 58.9233 117.378 59.0062 117.666 59.1719C117.958 59.3343 118.18 59.5199 118.332 59.7287C118.488 59.9342 118.609 60.1032 118.695 60.2358H118.795V56.4773H119.968V66.6591H118.834V65.4858H118.695C118.609 65.625 118.486 65.8007 118.327 66.0128C118.168 66.2216 117.941 66.4089 117.646 66.5746C117.351 66.737 116.958 66.8182 116.468 66.8182ZM116.627 65.7642C117.098 65.7642 117.495 65.6416 117.82 65.3963C118.145 65.1477 118.392 64.8047 118.561 64.3672C118.73 63.9264 118.814 63.4176 118.814 62.8409C118.814 62.2708 118.732 61.772 118.566 61.3445C118.4 60.9136 118.155 60.5788 117.83 60.3402C117.505 60.0982 117.104 59.9773 116.627 59.9773C116.13 59.9773 115.715 60.1049 115.384 60.3601C115.056 60.612 114.809 60.955 114.643 61.3892C114.481 61.8201 114.4 62.304 114.4 62.8409C114.4 63.3845 114.483 63.8783 114.648 64.3224C114.817 64.7633 115.066 65.1146 115.394 65.3764C115.725 65.6349 116.136 65.7642 116.627 65.7642Z" fill="white" fill-opacity="0.8"/>
<path d="M125.481 66.8182C124.746 66.8182 124.111 66.6558 123.577 66.331C123.047 66.0028 122.638 65.5455 122.349 64.9588C122.064 64.3688 121.922 63.6828 121.922 62.9006C121.922 62.1184 122.064 61.429 122.349 60.8324C122.638 60.2325 123.039 59.7652 123.552 59.4304C124.069 59.0923 124.673 58.9233 125.362 58.9233C125.76 58.9233 126.153 58.9896 126.54 59.1222C126.928 59.2547 127.281 59.4702 127.599 59.7685C127.917 60.0634 128.171 60.4545 128.36 60.9418C128.549 61.429 128.643 62.0289 128.643 62.7415V63.2386H122.757V62.2244H127.45C127.45 61.7936 127.364 61.4091 127.192 61.071C127.023 60.733 126.781 60.4661 126.466 60.2706C126.154 60.075 125.786 59.9773 125.362 59.9773C124.895 59.9773 124.49 60.0933 124.149 60.3253C123.811 60.554 123.551 60.8523 123.368 61.2202C123.186 61.5881 123.095 61.9825 123.095 62.4034V63.0795C123.095 63.6563 123.194 64.1451 123.393 64.5462C123.595 64.9439 123.876 65.2472 124.233 65.456C124.591 65.6615 125.007 65.7642 125.481 65.7642C125.79 65.7642 126.068 65.7211 126.317 65.6349C126.568 65.5455 126.786 65.4129 126.968 65.2372C127.15 65.0582 127.291 64.8362 127.39 64.571L128.524 64.8892C128.405 65.2737 128.204 65.6117 127.922 65.9034C127.641 66.1918 127.293 66.4171 126.878 66.5795C126.464 66.7386 125.998 66.8182 125.481 66.8182Z" fill="white" fill-opacity="0.8"/>
<path d="M130.428 66.6591V59.0227H131.562V60.1761H131.641C131.78 59.7983 132.032 59.4917 132.397 59.2564C132.761 59.0211 133.172 58.9034 133.63 58.9034C133.716 58.9034 133.824 58.9051 133.953 58.9084C134.082 58.9117 134.18 58.9167 134.246 58.9233V60.1165C134.206 60.1065 134.115 60.0916 133.973 60.0717C133.834 60.0485 133.686 60.0369 133.53 60.0369C133.159 60.0369 132.828 60.1148 132.536 60.2706C132.248 60.4231 132.019 60.6352 131.85 60.907C131.684 61.1754 131.601 61.482 131.601 61.8267V66.6591H130.428Z" fill="white" fill-opacity="0.8"/>
<path d="M141.046 60.733L139.992 61.0313C139.926 60.8556 139.828 60.6849 139.699 60.5192C139.573 60.3501 139.401 60.2109 139.182 60.1016C138.963 59.9922 138.683 59.9375 138.342 59.9375C137.874 59.9375 137.485 60.0452 137.173 60.2607C136.865 60.4728 136.711 60.7429 136.711 61.071C136.711 61.3627 136.817 61.593 137.029 61.7621C137.241 61.9311 137.573 62.072 138.023 62.1847L139.157 62.4631C139.84 62.6288 140.348 62.8823 140.683 63.2237C141.018 63.5618 141.185 63.9976 141.185 64.5313C141.185 64.9688 141.059 65.3598 140.808 65.7045C140.559 66.0492 140.211 66.321 139.763 66.5199C139.316 66.7188 138.796 66.8182 138.202 66.8182C137.424 66.8182 136.779 66.6491 136.268 66.3111C135.758 65.973 135.435 65.4792 135.299 64.8295L136.413 64.5511C136.519 64.9621 136.719 65.2704 137.014 65.4759C137.313 65.6813 137.702 65.7841 138.183 65.7841C138.729 65.7841 139.164 65.6681 139.485 65.4361C139.81 65.2008 139.972 64.919 139.972 64.5909C139.972 64.3258 139.879 64.1037 139.694 63.9247C139.508 63.7424 139.223 63.6065 138.839 63.517L137.566 63.2188C136.867 63.053 136.353 62.7962 136.025 62.4482C135.7 62.0968 135.538 61.6577 135.538 61.1307C135.538 60.6998 135.659 60.3187 135.901 59.9872C136.146 59.6558 136.479 59.3956 136.9 59.2067C137.324 59.0178 137.805 58.9233 138.342 58.9233C139.097 58.9233 139.691 59.089 140.121 59.4205C140.556 59.7519 140.864 60.1894 141.046 60.733Z" fill="white" fill-opacity="0.8"/>
<path d="M149.136 66.8381C148.652 66.8381 148.213 66.7469 147.819 66.5646C147.424 66.379 147.111 66.1122 146.879 65.7642C146.647 65.4129 146.531 64.9886 146.531 64.4915C146.531 64.054 146.617 63.6993 146.79 63.4276C146.962 63.1525 147.192 62.937 147.481 62.7813C147.769 62.6255 148.087 62.5095 148.435 62.4332C148.787 62.3537 149.14 62.2907 149.494 62.2443C149.958 62.1847 150.334 62.1399 150.623 62.1101C150.914 62.0769 151.126 62.0223 151.259 61.946C151.395 61.8698 151.463 61.7372 151.463 61.5483V61.5085C151.463 61.018 151.329 60.6368 151.06 60.3651C150.795 60.0933 150.392 59.9574 149.852 59.9574C149.292 59.9574 148.853 60.08 148.535 60.3253C148.216 60.5705 147.993 60.8324 147.863 61.1108L146.75 60.7131C146.949 60.2491 147.214 59.8878 147.545 59.6293C147.88 59.3674 148.245 59.1851 148.639 59.0824C149.037 58.9763 149.428 58.9233 149.812 58.9233C150.058 58.9233 150.339 58.9531 150.657 59.0128C150.979 59.0691 151.289 59.1868 151.587 59.3658C151.889 59.5447 152.139 59.8149 152.338 60.1761C152.537 60.5374 152.636 61.0213 152.636 61.6278V66.6591H151.463V65.625H151.403C151.324 65.7907 151.191 65.968 151.006 66.157C150.82 66.3459 150.573 66.5066 150.265 66.6392C149.957 66.7718 149.58 66.8381 149.136 66.8381ZM149.315 65.7841C149.779 65.7841 150.17 65.6929 150.488 65.5107C150.81 65.3284 151.052 65.093 151.214 64.8047C151.38 64.5163 151.463 64.2131 151.463 63.8949V62.821C151.413 62.8807 151.304 62.9354 151.135 62.9851C150.969 63.0315 150.777 63.0729 150.558 63.1094C150.343 63.1425 150.132 63.1723 149.927 63.1989C149.724 63.2221 149.56 63.242 149.434 63.2585C149.13 63.2983 148.845 63.3629 148.579 63.4524C148.318 63.5386 148.105 63.6695 147.943 63.8452C147.784 64.0175 147.704 64.2528 147.704 64.5511C147.704 64.9588 147.855 65.267 148.157 65.4759C148.462 65.6813 148.848 65.7841 149.315 65.7841Z" fill="white" fill-opacity="0.8"/>
<path d="M155.951 62.0653V66.6591H154.778V59.0227H155.911V60.2159H156.011C156.19 59.8281 156.461 59.5166 156.826 59.2813C157.191 59.0426 157.661 58.9233 158.238 58.9233C158.755 58.9233 159.207 59.0294 159.595 59.2415C159.983 59.4503 160.285 59.7685 160.5 60.196C160.715 60.6203 160.823 61.1572 160.823 61.8068V66.6591H159.65V61.8864C159.65 61.2865 159.494 60.8191 159.183 60.4844C158.871 60.1463 158.443 59.9773 157.9 59.9773C157.525 59.9773 157.191 60.0585 156.896 60.2209C156.604 60.3833 156.374 60.6203 156.205 60.9318C156.036 61.2434 155.951 61.6212 155.951 62.0653Z" fill="white" fill-opacity="0.8"/>
<path d="M165.851 66.8182C165.214 66.8182 164.653 66.6574 164.165 66.3359C163.678 66.0111 163.297 65.5537 163.022 64.9638C162.747 64.3705 162.609 63.6695 162.609 62.8608C162.609 62.0587 162.747 61.3627 163.022 60.7727C163.297 60.1828 163.68 59.727 164.17 59.4055C164.661 59.084 165.228 58.9233 165.871 58.9233C166.368 58.9233 166.76 59.0062 167.049 59.1719C167.34 59.3343 167.563 59.5199 167.715 59.7287C167.871 59.9342 167.992 60.1032 168.078 60.2358H168.177V56.4773H169.351V66.6591H168.217V65.4858H168.078C167.992 65.625 167.869 65.8007 167.71 66.0128C167.551 66.2216 167.324 66.4089 167.029 66.5746C166.734 66.737 166.341 66.8182 165.851 66.8182ZM166.01 65.7642C166.48 65.7642 166.878 65.6416 167.203 65.3963C167.528 65.1477 167.775 64.8047 167.944 64.3672C168.113 63.9264 168.197 63.4176 168.197 62.8409C168.197 62.2708 168.114 61.772 167.949 61.3445C167.783 60.9136 167.538 60.5788 167.213 60.3402C166.888 60.0982 166.487 59.9773 166.01 59.9773C165.513 59.9773 165.098 60.1049 164.767 60.3601C164.439 60.612 164.192 60.955 164.026 61.3892C163.864 61.8201 163.782 62.304 163.782 62.8409C163.782 63.3845 163.865 63.8783 164.031 64.3224C164.2 64.7633 164.449 65.1146 164.777 65.3764C165.108 65.6349 165.519 65.7642 166.01 65.7642Z" fill="white" fill-opacity="0.8"/>
<path d="M175.759 66.6591V56.4773H176.932V60.2358H177.032C177.118 60.1032 177.237 59.9342 177.39 59.7287C177.546 59.5199 177.768 59.3343 178.056 59.1719C178.348 59.0062 178.742 58.9233 179.239 58.9233C179.882 58.9233 180.449 59.084 180.939 59.4055C181.43 59.727 181.813 60.1828 182.088 60.7727C182.363 61.3627 182.501 62.0587 182.501 62.8608C182.501 63.6695 182.363 64.3705 182.088 64.9638C181.813 65.5537 181.432 66.0111 180.944 66.3359C180.457 66.6574 179.895 66.8182 179.259 66.8182C178.769 66.8182 178.376 66.737 178.081 66.5746C177.786 66.4089 177.559 66.2216 177.4 66.0128C177.241 65.8007 177.118 65.625 177.032 65.4858H176.893V66.6591H175.759ZM176.912 62.8409C176.912 63.4176 176.997 63.9264 177.166 64.3672C177.335 64.8047 177.582 65.1477 177.907 65.3963C178.232 65.6416 178.629 65.7642 179.1 65.7642C179.59 65.7642 180 65.6349 180.328 65.3764C180.659 65.1146 180.908 64.7633 181.074 64.3224C181.243 63.8783 181.327 63.3845 181.327 62.8409C181.327 62.304 181.244 61.8201 181.079 61.3892C180.916 60.955 180.669 60.612 180.338 60.3601C180.01 60.1049 179.597 59.9773 179.1 59.9773C178.623 59.9773 178.222 60.0982 177.897 60.3402C177.572 60.5788 177.327 60.9136 177.161 61.3445C176.995 61.772 176.912 62.2708 176.912 62.8409Z" fill="white" fill-opacity="0.8"/>
<path d="M187.398 66.8182C186.708 66.8182 186.103 66.6541 185.583 66.326C185.066 65.9979 184.662 65.5388 184.37 64.9489C184.082 64.3589 183.937 63.6695 183.937 62.8807C183.937 62.0852 184.082 61.3909 184.37 60.7976C184.662 60.2043 185.066 59.7436 185.583 59.4155C186.103 59.0874 186.708 58.9233 187.398 58.9233C188.087 58.9233 188.69 59.0874 189.207 59.4155C189.728 59.7436 190.132 60.2043 190.42 60.7976C190.712 61.3909 190.858 62.0852 190.858 62.8807C190.858 63.6695 190.712 64.3589 190.42 64.9489C190.132 65.5388 189.728 65.9979 189.207 66.326C188.69 66.6541 188.087 66.8182 187.398 66.8182ZM187.398 65.7642C187.921 65.7642 188.352 65.63 188.69 65.3615C189.028 65.093 189.278 64.7401 189.441 64.3026C189.603 63.8651 189.684 63.3911 189.684 62.8807C189.684 62.3703 189.603 61.8946 189.441 61.4538C189.278 61.013 189.028 60.6567 188.69 60.3849C188.352 60.1132 187.921 59.9773 187.398 59.9773C186.874 59.9773 186.443 60.1132 186.105 60.3849C185.767 60.6567 185.517 61.013 185.354 61.4538C185.192 61.8946 185.111 62.3703 185.111 62.8807C185.111 63.3911 185.192 63.8651 185.354 64.3026C185.517 64.7401 185.767 65.093 186.105 65.3615C186.443 65.63 186.874 65.7642 187.398 65.7642Z" fill="white" fill-opacity="0.8"/>
<path d="M194.896 66.8381C194.412 66.8381 193.973 66.7469 193.578 66.5646C193.184 66.379 192.871 66.1122 192.639 65.7642C192.407 65.4129 192.291 64.9886 192.291 64.4915C192.291 64.054 192.377 63.6993 192.549 63.4276C192.722 63.1525 192.952 62.937 193.24 62.7813C193.529 62.6255 193.847 62.5095 194.195 62.4332C194.546 62.3537 194.899 62.2907 195.254 62.2443C195.718 62.1847 196.094 62.1399 196.382 62.1101C196.674 62.0769 196.886 62.0223 197.019 61.946C197.155 61.8698 197.223 61.7372 197.223 61.5483V61.5085C197.223 61.018 197.088 60.6368 196.82 60.3651C196.555 60.0933 196.152 59.9574 195.612 59.9574C195.052 59.9574 194.613 60.08 194.294 60.3253C193.976 60.5705 193.752 60.8324 193.623 61.1108L192.51 60.7131C192.708 60.2491 192.974 59.8878 193.305 59.6293C193.64 59.3674 194.004 59.1851 194.399 59.0824C194.797 58.9763 195.188 58.9233 195.572 58.9233C195.817 58.9233 196.099 58.9531 196.417 59.0128C196.739 59.0691 197.049 59.1868 197.347 59.3658C197.649 59.5447 197.899 59.8149 198.098 60.1761C198.297 60.5374 198.396 61.0213 198.396 61.6278V66.6591H197.223V65.625H197.163C197.083 65.7907 196.951 65.968 196.765 66.157C196.58 66.3459 196.333 66.5066 196.025 66.6392C195.716 66.7718 195.34 66.8381 194.896 66.8381ZM195.075 65.7841C195.539 65.7841 195.93 65.6929 196.248 65.5107C196.57 65.3284 196.812 65.093 196.974 64.8047C197.14 64.5163 197.223 64.2131 197.223 63.8949V62.821C197.173 62.8807 197.064 62.9354 196.895 62.9851C196.729 63.0315 196.537 63.0729 196.318 63.1094C196.102 63.1425 195.892 63.1723 195.686 63.1989C195.484 63.2221 195.32 63.242 195.194 63.2585C194.889 63.2983 194.604 63.3629 194.339 63.4524C194.077 63.5386 193.865 63.6695 193.703 63.8452C193.544 64.0175 193.464 64.2528 193.464 64.5511C193.464 64.9588 193.615 65.267 193.917 65.4759C194.221 65.6813 194.608 65.7841 195.075 65.7841Z" fill="white" fill-opacity="0.8"/>
<path d="M200.537 66.6591V59.0227H201.671V60.1761H201.751C201.89 59.7983 202.142 59.4917 202.506 59.2564C202.871 59.0211 203.282 58.9034 203.739 58.9034C203.825 58.9034 203.933 58.9051 204.062 58.9084C204.192 58.9117 204.289 58.9167 204.356 58.9233V60.1165C204.316 60.1065 204.225 60.0916 204.082 60.0717C203.943 60.0485 203.796 60.0369 203.64 60.0369C203.269 60.0369 202.937 60.1148 202.645 60.2706C202.357 60.4231 202.128 60.6352 201.959 60.907C201.794 61.1754 201.711 61.482 201.711 61.8267V66.6591H200.537Z" fill="white" fill-opacity="0.8"/>
<path d="M208.398 66.8182C207.761 66.8182 207.199 66.6574 206.712 66.3359C206.225 66.0111 205.844 65.5537 205.569 64.9638C205.294 64.3705 205.156 63.6695 205.156 62.8608C205.156 62.0587 205.294 61.3627 205.569 60.7727C205.844 60.1828 206.227 59.727 206.717 59.4055C207.208 59.084 207.774 58.9233 208.417 58.9233C208.915 58.9233 209.307 59.0062 209.596 59.1719C209.887 59.3343 210.109 59.5199 210.262 59.7287C210.418 59.9342 210.539 60.1032 210.625 60.2358H210.724V56.4773H211.898V66.6591H210.764V65.4858H210.625C210.539 65.625 210.416 65.8007 210.257 66.0128C210.098 66.2216 209.871 66.4089 209.576 66.5746C209.281 66.737 208.888 66.8182 208.398 66.8182ZM208.557 65.7642C209.027 65.7642 209.425 65.6416 209.75 65.3963C210.075 65.1477 210.322 64.8047 210.491 64.3672C210.66 63.9264 210.744 63.4176 210.744 62.8409C210.744 62.2708 210.661 61.772 210.496 61.3445C210.33 60.9136 210.085 60.5788 209.76 60.3402C209.435 60.0982 209.034 59.9773 208.557 59.9773C208.059 59.9773 207.645 60.1049 207.314 60.3601C206.986 60.612 206.739 60.955 206.573 61.3892C206.411 61.8201 206.329 62.304 206.329 62.8409C206.329 63.3845 206.412 63.8783 206.578 64.3224C206.747 64.7633 206.996 65.1146 207.324 65.3764C207.655 65.6349 208.066 65.7642 208.557 65.7642Z" fill="white" fill-opacity="0.8"/>
<path d="M219.618 60.733L218.564 61.0313C218.498 60.8556 218.4 60.6849 218.271 60.5192C218.145 60.3501 217.973 60.2109 217.754 60.1016C217.535 59.9922 217.255 59.9375 216.914 59.9375C216.447 59.9375 216.057 60.0452 215.746 60.2607C215.437 60.4728 215.283 60.7429 215.283 61.071C215.283 61.3627 215.389 61.593 215.601 61.7621C215.814 61.9311 216.145 62.072 216.596 62.1847L217.729 62.4631C218.412 62.6288 218.921 62.8823 219.256 63.2237C219.59 63.5618 219.758 63.9976 219.758 64.5313C219.758 64.9688 219.632 65.3598 219.38 65.7045C219.131 66.0492 218.783 66.321 218.336 66.5199C217.888 66.7188 217.368 66.8182 216.775 66.8182C215.996 66.8182 215.351 66.6491 214.841 66.3111C214.33 65.973 214.007 65.4792 213.871 64.8295L214.985 64.5511C215.091 64.9621 215.291 65.2704 215.586 65.4759C215.885 65.6813 216.274 65.7841 216.755 65.7841C217.302 65.7841 217.736 65.6681 218.057 65.4361C218.382 65.2008 218.545 64.919 218.545 64.5909C218.545 64.3258 218.452 64.1037 218.266 63.9247C218.081 63.7424 217.796 63.6065 217.411 63.517L216.138 63.2188C215.439 63.053 214.925 62.7962 214.597 62.4482C214.272 62.0968 214.11 61.6577 214.11 61.1307C214.11 60.6998 214.231 60.3187 214.473 59.9872C214.718 59.6558 215.051 59.3956 215.472 59.2067C215.896 59.0178 216.377 58.9233 216.914 58.9233C217.67 58.9233 218.263 59.089 218.694 59.4205C219.128 59.7519 219.436 60.1894 219.618 60.733Z" fill="white" fill-opacity="0.8"/>
<g opacity="0.8" clip-path="url(#clip0_15_950)">
<path d="M37 44C37 32 31.5 6.5 2 7.5" stroke="white" stroke-width="2"/>
<path d="M8.41177 15L1 8L10 1" stroke="white" stroke-width="2" stroke-linejoin="round"/>
</g>
<defs>
<clipPath id="clip0_15_950">
<rect width="45" height="38" fill="white" transform="translate(0 45) rotate(-90)"/>
</clipPath>
</defs>
</svg>
