<svg width="101" height="101" viewBox="0 0 101 101" fill="none" xmlns="http://www.w3.org/2000/svg">
<path d="M73.5867 2H28.1348C13.7009 2 2 13.7009 2 28.1348V73.5867C2 88.0206 13.7009 99.7215 28.1348 99.7215H73.5867C88.0206 99.7215 99.7215 88.0206 99.7215 73.5867V28.1348C99.7215 13.7009 88.0206 2 73.5867 2Z" stroke="#4EB6FF" stroke-opacity="0.17" stroke-width="2.27259"/>
<mask id="mask0_395_3560" style="mask-type:luminance" maskUnits="userSpaceOnUse" x="9" y="9" width="83" height="83">
<path d="M73.5857 9.95312H28.1339C18.0929 9.95312 9.95312 18.0929 9.95312 28.1339V73.5857C9.95312 83.6267 18.0929 91.7665 28.1339 91.7665H73.5857C83.6267 91.7665 91.7665 83.6267 91.7665 73.5857V28.1339C91.7665 18.0929 83.6267 9.95312 73.5857 9.95312Z" fill="white"/>
</mask>
<g mask="url(#mask0_395_3560)">
<path d="M73.5857 9.95312H28.1339C18.0929 9.95312 9.95312 18.0929 9.95312 28.1339V73.5857C9.95312 83.6267 18.0929 91.7665 28.1339 91.7665H73.5857C83.6267 91.7665 91.7665 83.6267 91.7665 73.5857V28.1339C91.7665 18.0929 83.6267 9.95312 73.5857 9.95312Z" fill="#06070F"/>
<path d="M73.5857 9.95312H28.1339C18.0929 9.95312 9.95312 18.0929 9.95312 28.1339V73.5857C9.95312 83.6267 18.0929 91.7665 28.1339 91.7665H73.5857C83.6267 91.7665 91.7665 83.6267 91.7665 73.5857V28.1339C91.7665 18.0929 83.6267 9.95312 73.5857 9.95312Z" fill="url(#paint0_linear_395_3560)"/>
<g filter="url(#filter0_f_395_3560)">
<path d="M91.8633 37.8633H9.86328V91.8633H91.8633V37.8633Z" fill="url(#paint1_linear_395_3560)" fill-opacity="0.5"/>
</g>
</g>
<path fill-rule="evenodd" clip-rule="evenodd" d="M34 24C28.4772 24 24 28.4772 24 34V68C24 73.5228 28.4772 78 34 78H68C73.5228 78 78 73.5228 78 68V34C78 28.4772 73.5228 24 68 24H34ZM38.4595 37.1617C35.8324 37.1617 33.7027 39.2914 33.7027 41.9184V60.0806C33.7027 62.7077 35.8324 64.8374 38.4595 64.8374H53.1622C55.7892 64.8374 57.9189 62.7077 57.9189 60.0806V56.5581L63.9165 59.5569C65.9292 60.5632 68.2973 59.0996 68.2973 56.8494V45.1496C68.2973 42.8994 65.9292 41.4358 63.9165 42.4422L57.9189 45.441V41.9184C57.9189 39.2914 55.7892 37.1617 53.1622 37.1617H38.4595ZM65.0769 57.2362L57.9189 53.6572V48.3418L65.0769 44.7629C65.3644 44.6191 65.7027 44.8282 65.7027 45.1496V56.8494C65.7027 57.1709 65.3644 57.38 65.0769 57.2362ZM55.3243 41.9184V47.5401V54.459V60.0806C55.3243 61.2747 54.3563 62.2428 53.1622 62.2428H38.4595C37.2653 62.2428 36.2973 61.2747 36.2973 60.0806V41.9184C36.2973 40.7243 37.2653 39.7563 38.4595 39.7563H53.1622C54.3563 39.7563 55.3243 40.7243 55.3243 41.9184Z" fill="url(#paint2_linear_395_3560)"/>
<defs>
<filter id="filter0_f_395_3560" x="3.0455" y="31.0455" width="95.6356" height="67.6356" filterUnits="userSpaceOnUse" color-interpolation-filters="sRGB">
<feFlood flood-opacity="0" result="BackgroundImageFix"/>
<feBlend mode="normal" in="SourceGraphic" in2="BackgroundImageFix" result="shape"/>
<feGaussianBlur stdDeviation="3.40889" result="effect1_foregroundBlur_395_3560"/>
</filter>
<linearGradient id="paint0_linear_395_3560" x1="50.8598" y1="9.95312" x2="50.8598" y2="91.7665" gradientUnits="userSpaceOnUse">
<stop stop-color="#4EB6FF"/>
<stop offset="1" stop-color="#2B6AFF"/>
</linearGradient>
<linearGradient id="paint1_linear_395_3560" x1="50.8633" y1="37.8633" x2="50.8633" y2="91.8633" gradientUnits="userSpaceOnUse">
<stop stop-color="#06070F" stop-opacity="0"/>
<stop offset="1" stop-color="#06070F"/>
</linearGradient>
<linearGradient id="paint2_linear_395_3560" x1="51" y1="24" x2="51" y2="78" gradientUnits="userSpaceOnUse">
<stop stop-color="white"/>
<stop offset="1" stop-color="white" stop-opacity="0.6"/>
</linearGradient>
</defs>
</svg>
