<svg xmlns="http://www.w3.org/2000/svg" fill="none" width="100%" height="100%" viewBox="0 0 440 260"><path class="svg-animate-path svg-graph-ref" stroke="white" stroke-width="1.5" d="m0 208 50.008-48.156a11.999 11.999 0 0 1 9.507-3.297l45.015 4.461a12.002 12.002 0 0 0 8.822-2.687l43.117-35.581a11.997 11.997 0 0 1 10.264-2.454l42.548 9.543c3.322.745 6.804.044 9.579-1.928l29.475-20.952a12 12 0 0 1 14.788.691l27.781 23.949a12.04 12.04 0 0 0 16.486-.709c13.486-13.811 41.528-42.238 62.36-61.38 19.004-17.462 68.75-70 68.75-70" style="stroke-dasharray: 547.621; stroke-dashoffset: 161.244;"></path></svg>